HIERARCHY
ROOT pelvis
{
  OFFSET 0 100 0
  CHANNELS 6 Xposition Yposition Zposition Zrotation Xrotation Yrotation
  JOINT pelvis_right_femur
  {
    OFFSET -10.78128 -3.44521 -0.5502486
    CHANNELS 3 Zrotation Xrotation Yrotation
    JOINT right_femur_tibia
    {
      OFFSET -0.8047443 -44.0398 -0.1307829
      CHANNELS 3 Zrotation Xrotation Yrotation
      JOINT right_tibia_foot
      {
        OFFSET 3.006224 -47.83518 -5
        CHANNELS 3 Zrotation Xrotation Yrotation
        End Site
        {
          OFFSET 0 -5 15
        }
      }
    }
  }
  JOINT pelvis_left_femur
  {
    OFFSET 10.78128 -3.44521 -0.5502486
    CHANNELS 3 Zrotation Xrotation Yrotation
    JOINT left_femur_tibia
    {
      OFFSET 0.8047443 -44.0398 -0.1307829
      CHANNELS 3 Zrotation Xrotation Yrotation
      JOINT left_tibia_foot
      {
        OFFSET -4.370144 -48.10324 -4.275266
        CHANNELS 3 Zrotation Xrotation Yrotation
        End Site
        {
          OFFSET 0 -5 15
        }
      }
    }
  }
  JOINT pelvis_spine1
  {
    OFFSET 0 6.468898 -3.129235
    CHANNELS 3 Zrotation Xrotation Yrotation
    JOINT spine1
    {
      OFFSET 0 23.15396 4.99043
      CHANNELS 3 Zrotation Xrotation Yrotation
      JOINT spine2
      {
        OFFSET 0 20.79997 -5.064912
        CHANNELS 3 Zrotation Xrotation Yrotation
        JOINT neck
        {
          OFFSET 0 14.38658 9.616178
          CHANNELS 3 Zrotation Xrotation Yrotation
          End Site
          {
            OFFSET 0 20 0
          }
        }
      }
      JOINT right_manubrium
      {
        OFFSET -5.722621 16.35077 3.967754
        CHANNELS 3 Zrotation Xrotation Yrotation
        JOINT right_clavicle
        {
          OFFSET -13.16364 1.694482 -4.693211
          CHANNELS 3 Zrotation Xrotation Yrotation
          JOINT right_humerus
          {
            OFFSET -28.5034 -0.3100689 -2.792744
            CHANNELS 3 Zrotation Xrotation Yrotation
            JOINT right_radius
            {
              OFFSET -25.15693 0.02248979 -1.271978
              CHANNELS 3 Zrotation Xrotation Yrotation
              End Site
              {
                OFFSET -15 0 0
              }
            }
          }
        }
      }
      JOINT left_manubrium
      {
        OFFSET 5.722621 16.35077 3.967754
        CHANNELS 3 Zrotation Xrotation Yrotation
        JOINT left_clavicle
        {
          OFFSET 13.16364 1.694482 -4.693211
          CHANNELS 3 Zrotation Xrotation Yrotation
          JOINT left_humerus
          {
            OFFSET 29.39168 -1.063119 -2.237045
            CHANNELS 3 Zrotation Xrotation Yrotation
            JOINT left_radius
            {
              OFFSET 24.59957 -0.9528479 0.9047498
              CHANNELS 3 Zrotation Xrotation Yrotation
              End Site
              {
                OFFSET 15 -0 -0
              }
            }
          }
        }
      }
    }
  }
}
MOTION
Frames: 9
Frame Time: 0.0416666666667
257.8156 103.4478 3030.017 1.786189 -8.507209 2.78112 0.7274014 16.20417 3.162428 -0 36.96828 -0 -1.102539 -4.571407 -2.712365 -1.653187 -18.74917 -5.411661 -0 18.80971 -0 -4.161189 -8.0575 18.62362 -1.270002 0.146501 6.845498 -1.194627 10.54153 -2.581241 2.653233 23.64525 3.491351 1.134407 -16.36543 6.383822 -1.066317 -22.26215 10.67974 84.66658 19.29554 -5.379893 -0 0 22.43697 -24.15131 9.970983 14.37254 3.57642 -15.68022 -3.809483 -94.34182 22.02873 26.11372 0 0 -4.807595 -0.4372839 10.41291 13.27903
259.1652 104.1013 3036.642 2.205151 -9.013938 3.420542 -0.1467194 13.08245 3.466549 -0 45.35209 -0 -0.1186753 -1.23059 -3.837822 -3.163287 -14.1729 -6.490428 -0 19.88923 -0 -4.680538 -9.228804 18.1558 -1.262215 0.1396843 6.515295 -1.054083 10.46742 -2.781927 2.671806 23.77725 3.56313 1.155023 -16.50617 6.505237 -1.163405 -21.84741 10.62158 85.21534 19.31522 -6.223476 -0 0 21.37765 -23.72783 9.836911 13.92358 3.73537 -16.04675 -3.900895 -93.83401 22.13799 25.05052 0 0 -5.595326 0.1351674 10.84685 12.55709
260.5232 105.1775 3043.157 2.553025 -9.089867 4.296616 -0.7642145 8.429297 3.648756 -0 52.08 -0 0.560313 1.501804 -4.88564 -4.658915 -8.640077 -7.869178 -0 20.11208 -0 -4.758282 -10.84371 17.76896 -1.245537 0.1202411 6.035375 -0.832407 10.40737 -3.152067 2.674341 23.89341 3.690775 1.199838 -16.69992 6.657719 -1.249948 -21.19611 10.56464 86.05823 19.3856 -7.653497 -0 0 19.74143 -23.17685 9.730871 13.28785 3.970843 -16.68026 -4.074211 -92.89826 22.23377 23.29592 0 0 -7.114945 0.9314886 11.30177 11.57847
261.8525 106.4223 3049.362 2.692415 -8.57027 5.268478 -0.8934958 2.658908 3.694186 -0 55.01312 -0 0.591886 2.800859 -5.54358 -5.808302 -2.979842 -9.423435 -0 19.37768 -0 -4.216561 -12.67889 17.60182 -1.210945 0.07671065 5.449219 -0.5471276 10.38935 -3.669925 2.656146 23.9735 3.863122 1.26461 -16.94732 6.825703 -1.331889 -20.38763 10.52232 87.16447 19.46377 -9.575464 -0 0 17.66156 -22.55857 9.671717 12.52395 4.262376 -17.55923 -4.325433 -91.61798 22.23268 21.01103 0 0 -9.269242 1.931448 11.74824 10.37273
263.1114 107.5106 3055.174 2.535566 -7.534944 6.18461 -0.4604009 -3.365323 3.534406 -0 52.79005 -0 -0.1351693 2.473343 -5.65554 -6.326528 1.839697 -10.76807 -0 17.91199 -0 -3.214093 -14.39678 17.56309 -1.153571 0.002516469 4.815672 -0.2249572 10.43132 -4.289537 2.616808 24.0055 4.061845 1.341912 -17.23975 6.992307 -1.41616 -19.5232 10.50421 88.45876 19.50399 -11.81274 -0 0 15.33947 -21.93918 9.669001 11.70779 4.58036 -18.62039 -4.636786 -90.14043 22.07187 18.44516 0 0 -11.85503 3.081117 12.15878 9.006419
264.2733 108.1715 3060.674 2.120719 -6.247248 6.964004 0.3540302 -9.018279 3.094726 -0 46.06387 -0 -1.373645 1.130828 -5.366244 -6.230178 5.502683 -11.56452 -0 15.97647 -0 -2.121718 -15.84793 17.40486 -1.077076 -0.09834223 4.178207 0.1123898 10.52931 -4.966288 2.560123 23.99003 4.271989 1.425781 -17.55906 7.147265 -1.501686 -18.66634 10.51098 89.85691 19.48421 -14.20184 -0 0 12.93754 -21.35817 9.719545 10.89373 4.90097 -19.7899 -4.985439 -88.59314 21.74496 15.7933 0 0 -14.68054 4.308706 12.50829 7.564046
265.3202 108.2687 3065.996 1.557521 -4.939333 7.591351 1.29784 -14.27384 2.426765 -0 36.83764 -0 -2.791652 -0.4699265 -4.941302 -5.77032 8.432519 -11.82314 -0 13.95941 -0 -1.196599 -17.08941 16.99656 -0.9874018 -0.2186928 3.56311 0.4509887 10.67271 -5.66886 2.490212 23.93117 4.484106 1.512501 -17.88753 7.285018 -1.583526 -17.84839 10.5398 91.29212 19.40077 -16.62983 -0 0 10.55944 -20.83573 9.818146 10.11414 5.209028 -21.01019 -5.353565 -87.05789 21.27225 13.17479 0 0 -17.61442 5.550709 12.77794 6.118962
266.2398 107.7917 3071.274 0.9549386 -3.780492 8.081495 2.194322 -19.18658 1.630209 -0 26.98891 -0 -4.147794 -1.783697 -4.57924 -5.177174 11.07101 -11.65484 -0 12.41611 -0 -0.6004168 -18.15159 16.30026 -0.8873592 -0.3548321 3.002435 0.7744595 10.85807 -6.362376 2.410513 23.83122 4.686679 1.59708 -18.21186 7.398366 -1.661541 -17.11667 10.58993 92.69175 19.25401 -18.97107 -0 0 8.327326 -20.39909 9.962901 9.409036 5.488194 -22.2231 -5.724823 -85.62184 20.67594 10.7371 0 0 -20.50632 6.749736 12.9611 4.736601
267.0367 106.837 3076.656 0.4207599 -2.941957 8.464651 2.923366 -23.49854 0.805151 -0 18.13229 -0 -5.246346 -2.423662 -4.39983 -4.614818 13.52544 -11.11495 -0 12.0269 -0 -0.4891528 -18.9342 15.31412 -0.7792121 -0.5030896 2.54001 1.059177 11.08217 -6.99562 2.32619 23.69659 4.862915 1.671779 -18.51841 7.478706 -1.740198 -16.54236 10.66018 93.95556 19.05317 -21.04916 -0 0 6.412298 -20.08304 10.1473 8.832906 5.717866 -23.34777 -6.076629 -84.39858 19.99833 8.689126 0 0 -23.13255 7.840228 13.06683 3.490285
